<?xml version="1.0" encoding="utf-8"?>
<!-- Generator: Adobe Illustrator 21.1.0, SVG Export Plug-In . SVG Version: 6.00 Build 0)  -->
<svg version="1.1" xmlns="http://www.w3.org/2000/svg" xmlns:xlink="http://www.w3.org/1999/xlink" x="0px" y="0px"
	 viewBox="0 0 78 70" style="enable-background:new 0 0 78 70;" xml:space="preserve">
<style type="text/css">
	.st0{display:none;}
	.st1{display:inline;}
	.st2{fill:#1D1D1B;}
	.st3{clip-path:url(#SVGID_2_);fill:#B2B2B2;}
	.st4{clip-path:url(#SVGID_4_);fill:#B2B2B2;}
	.st5{fill:#B2B2B2;}
</style>
<g id="Calque_1" class="st0">
	<g class="st1">
		<rect class="st2" width="78" height="70"/>
		<g>
			<defs>
				<rect id="SVGID_1_" width="78" height="70"/>
			</defs>
			<clipPath id="SVGID_2_">
				<use xlink:href="#SVGID_1_"  style="overflow:visible;"/>
			</clipPath>
			<rect x="55.1" y="60" class="st3" width="3" height="11"/>
			<rect x="8.1" y="50.8" class="st3" width="3" height="20.2"/>
			<rect x="31.6" y="60" class="st3" width="3" height="11"/>
			<rect x="19.8" y="62.3" class="st3" width="3" height="8.7"/>
			<rect x="43.3" y="62.3" class="st3" width="3" height="8.7"/>
			<rect x="66.8" y="52.7" class="st3" width="3" height="18.3"/>
		</g>
		<g>
			<defs>
				<rect id="SVGID_3_" width="78" height="70"/>
			</defs>
			<clipPath id="SVGID_4_">
				<use xlink:href="#SVGID_3_"  style="overflow:visible;"/>
			</clipPath>
			<rect x="55.1" y="-1" class="st4" width="3" height="21.3"/>
			<rect x="8.1" y="-1.3" class="st4" width="3" height="29"/>
			<rect x="31.6" y="-1" class="st4" width="3" height="21.3"/>
			<rect x="19.8" y="-1" class="st4" width="3" height="19"/>
			<rect x="43.3" y="-1" class="st4" width="3" height="16.5"/>
			<rect x="66.8" y="-1" class="st4" width="3" height="25"/>
		</g>
	</g>
</g>
<g id="Calque_2">
	<rect x="8.1" y="27.7" class="st5" width="3" height="23.1"/>
	<rect x="19.8" y="18" class="st5" width="3" height="44.3"/>
	<rect x="31.6" y="20.3" class="st5" width="3" height="39.7"/>
	<rect x="43.3" y="15.5" class="st5" width="3" height="46.8"/>
	<rect x="55.1" y="20.3" class="st5" width="3" height="39.7"/>
	<rect x="66.8" y="24" class="st5" width="3" height="28.7"/>
</g>
</svg>
