<?xml version="1.0" encoding="utf-8"?>
<!-- Generator: Adobe Illustrator 21.1.0, SVG Export Plug-In . SVG Version: 6.00 Build 0)  -->
<svg version="1.1" id="Calque_1" xmlns="http://www.w3.org/2000/svg" xmlns:xlink="http://www.w3.org/1999/xlink" x="0px" y="0px"
	 viewBox="0 0 713 454" style="enable-background:new 0 0 713 454;" xml:space="preserve">
<style type="text/css">
	.st0{fill:#3C3C3B;}
</style>
<path class="st0" d="M708,134.9V4.9H6v286h624v26H6v130h702v-286H84v-26H708z M88.3,157.2c16.8-1,90.9-0.9,111.6-0.1
	c20.6,0.8,69.6,0.4,86.6-0.4s59.3,2.5,80.7,1.5c21.3-1,32.8-2,51.8-1.3c19,0.7,78,0.3,94.5-0.5c16.5-0.8,71.5-0.2,86.3,0.7
	c14.8,0.8,51.2-3,63.5-1c12.3,2,28.8,0.8,31.8,0.7s16.2,1,17.3,1c0.7,5.2,0,38.3-1,54.7c-1,16.3-0.8,35.9,0.4,49.5s0,51.8-0.7,60
	c-0.7,8.2,0,26.4,0,36.3c0,9.9,0.7,30.7,0.2,42.5s1.8,49.2,1.3,52c-10.2,0.2-81.3,0.5-89.8,0.3c-8.5-0.2-23.8-0.3-39-1.5
	c-15.2-1.2-59.5-0.2-73.5,0.5c-14,0.7-57,1-74.3-0.5s-50.8,1.3-59.5,1.5c-8.7,0.2-27.3,0.2-39.2,0c-11.8-0.2-92.2,0-106.8-0.8
	s-68.7,2.4-86,1.4s-53.8-1.6-76.7-0.9c-22.8,0.7-61-2.7-66.3-2.4c0.7-12.8,0.3-55.6-1-61.4c-1.3-5.8,0.5-33.7,1.3-37.7
	c0.8-4,1.2-35-0.3-37.2c10.5,1.5,48.4-0.2,70.9-1.7s82.1,0.7,105.9,0.7c23.8,0,68.7-1.3,99.7-0.7s102.8,3.5,128,2s105-2.8,126-1.3
	s35,0,60.8,0c25.8,0,30.8,1,33.5,1c0.9-5.3,0.4-15.2,0.5-16.7c-6.8,1.8-53.9-2.2-78.8-2.3c-24.9-0.2-99.7,3.2-119.7,2.7
	s-84-0.7-101.2,0c-17.2,0.7-99.2-3.5-120-2.7c-20.8,0.8-80.9,0.7-99.7,0c-18.8-0.7-56.4,2.8-62.9,2.8s-43.2-0.5-43-0.8
	c1.7-8.2-1.7-50.3,0.7-60.2c2.3-9.8-0.5-41.2-0.7-54c-0.2-12.8-0.2-51,1.2-67.8C4,98.2,1.8,60.5,1.4,47.2C1,33.9,5,10.5,2.5,2.2
	c2.8,0.5,26-0.3,43.3,0c17.3,0.3,55.7-2.3,78.9-2c23.3,0.3,73.2,0.5,103,0.9c29.9,0.4,43.4,1.7,55.5,0.2c12.2-1.5,31,0.2,39,0.7
	s77.2-0.7,93.7-0.3c16.5,0.4,80,0.1,105.3-0.6c25.3-0.8,71.8,0.4,92.7,0.7c20.8,0.3,38.2,1.5,55.3,0.6c17.5-0.8,39.8-0.3,42.5-0.2
	c0.7,6.4,1.8,47.4,0.7,58.5c-1.2,11.2-1.5,21.2-1.7,24c-0.2,2.8,0.7,13,0.8,18.2c0.2,5.2,0.3,35.2,0.3,38c-16,0.8-53.8,0.5-67-0.2
	c-13.2-0.7-75.5-1.7-88-1.7c-12.5,0-58.2,0.8-75,2.3c-16.8,1.5-42.7-1.8-51.5-1.7c-8.8,0.2-71.5,2.2-92.7,2.3
	c-21.2,0.2-71.8-0.3-95.7-1.7c-23.8-1.3-35.5-0.4-41-0.3s-17.8,0.8-26,0.8c-8.2,0-56.3,1-67,0.3c-10.7-0.7-19.7-1.1-19.7-1.1
	C89.3,144.7,88.7,156.7,88.3,157.2z"/>
</svg>
