<?xml version="1.0" encoding="utf-8"?>
<!-- Generator: Adobe Illustrator 21.1.0, SVG Export Plug-In . SVG Version: 6.00 Build 0)  -->
<svg version="1.1" id="Calque_1" xmlns="http://www.w3.org/2000/svg" xmlns:xlink="http://www.w3.org/1999/xlink" x="0px" y="0px"
	 viewBox="0 0 37.3 43.2" style="enable-background:new 0 0 37.3 43.2;" xml:space="preserve">
<style type="text/css">
	.st0{fill:#1D1D1D;}
</style>
<g>
	<path class="st0" d="M26,7.4C26,7.4,26,7.4,26,7.4C26,3.3,22.7,0,18.7,0s-7.4,3.3-7.4,7.4c0,0,0,0,0,0C4.7,10.3,0,16.9,0,24.6
		c0,10.3,8.4,18.7,18.7,18.7s18.7-8.4,18.7-18.7C37.3,16.9,32.7,10.3,26,7.4z M18.7,3c2.1,0,3.8,1.5,4.3,3.4
		c-1.4-0.3-2.8-0.5-4.3-0.5s-2.9,0.2-4.3,0.5C14.8,4.4,16.6,3,18.7,3z M18.7,39.5c-8.3,0-15-6.7-15-15c0-6,3.5-11.1,8.6-13.5
		c0.5-0.2,0.9-0.4,1.4-0.6c0,0,0,0,0,0c0.5-0.2,1-0.3,1.5-0.4l0,0c1.1-0.3,2.3-0.4,3.5-0.4S21,9.7,22.2,10l0,0
		c0.5,0.1,1,0.3,1.5,0.4c0,0,0,0,0,0c0.5,0.2,1,0.4,1.4,0.6c5.1,2.4,8.6,7.6,8.6,13.5C33.6,32.8,26.9,39.5,18.7,39.5z"/>
	<path class="st0" d="M26,7.4C26,7.4,26,7.4,26,7.4C26,3.3,22.7,0,18.7,0s-7.4,3.3-7.4,7.4c0,0,0,0,0,0C4.7,10.3,0,16.9,0,24.6
		c0,10.3,8.4,18.7,18.7,18.7s18.7-8.4,18.7-18.7C37.3,16.9,32.7,10.3,26,7.4z M18.7,3c2.1,0,3.8,1.5,4.3,3.4
		c-1.4-0.3-2.8-0.5-4.3-0.5s-2.9,0.2-4.3,0.5C14.8,4.4,16.6,3,18.7,3z M18.7,39.5c-8.3,0-15-6.7-15-15c0-6,3.5-11.1,8.6-13.5
		c0.5-0.2,0.9-0.4,1.4-0.6c0,0,0,0,0,0c0.5-0.2,1-0.3,1.5-0.4l0,0c1.1-0.3,2.3-0.4,3.5-0.4S21,9.7,22.2,10l0,0
		c0.5,0.1,1,0.3,1.5,0.4c0,0,0,0,0,0c0.5,0.2,1,0.4,1.4,0.6c5.1,2.4,8.6,7.6,8.6,13.5C33.6,32.8,26.9,39.5,18.7,39.5z"/>
	<circle class="st0" cx="18.7" cy="24.6" r="2.3"/>
	<path class="st0" d="M18.7,25.8c-0.7,0-1.2-0.5-1.2-1.2V14.2c0-0.7,0.5-1.2,1.2-1.2s1.2,0.5,1.2,1.2v10.3
		C19.9,25.2,19.3,25.8,18.7,25.8z"/>
	<path class="st0" d="M29,25.8H18.7c-0.7,0-1.2-0.5-1.2-1.2c0-0.7,0.5-1.2,1.2-1.2H29c0.7,0,1.2,0.5,1.2,1.2
		C30.2,25.2,29.7,25.8,29,25.8z"/>
</g>
</svg>
