<?xml version="1.0" encoding="utf-8"?>
<!-- Generator: Adobe Illustrator 21.1.0, SVG Export Plug-In . SVG Version: 6.00 Build 0)  -->
<svg version="1.1" id="bt-recommencer" xmlns="http://www.w3.org/2000/svg" xmlns:xlink="http://www.w3.org/1999/xlink" x="0px"
	 y="0px" viewBox="0 0 44 44" style="enable-background:new 0 0 44 44;" xml:space="preserve">
<style type="text/css">
	.st0{fill:#3C3C3C;}
	.st1{fill:#1D1D1D;}
	.st2{fill:#3C3C3B;}
	.st3{opacity:3.000000e-02;fill:#FFFFFF;}
</style>
<g id="bt-recommencer_1_">
	<path id="fond1" class="st0" d="M44,0h-4H4H0v4v36v4h4h36h4v-4V4V0L44,0z"/>
	<rect id="fond2" x="4" y="4" class="st1" width="36" height="36"/>
	<path id="flèche" class="st2" d="M22,8.2c-5.9,0-10.6,4.8-10.6,10.6h2.4c0-4.6,3.7-8.3,8.3-8.3s8.3,3.7,8.3,8.3s-3.7,8.3-8.3,8.3
		v-5l-6.1,6.1l6.1,6.1v-4.9c5.9,0,10.6-4.8,10.6-10.6S27.9,8.2,22,8.2z"/>
	<g id="reflets">
		<polygon class="st3" points="4,30.6 30.6,4 17.5,4 4,17.5 		"/>
		<polygon class="st3" points="12,4 4,4 4,12 		"/>
		<polygon class="st3" points="40,40 40,23.8 23.8,40 		"/>
	</g>
</g>
</svg>
