<?xml version="1.0" encoding="utf-8"?>
<!-- Generator: Adobe Illustrator 21.1.0, SVG Export Plug-In . SVG Version: 6.00 Build 0)  -->
<svg version="1.1" id="Calque_1" xmlns="http://www.w3.org/2000/svg" xmlns:xlink="http://www.w3.org/1999/xlink" x="0px" y="0px"
	 viewBox="0 0 64.3 40.3" style="enable-background:new 0 0 64.3 40.3;" xml:space="preserve">
<style type="text/css">
	.st0{fill:#1D1D1D;}
</style>
<g>
	<polygon class="st0" points="32.2,0 37.2,15.4 53.4,15.4 40.3,24.9 45.3,40.3 32.2,30.8 19.1,40.3 24.1,24.9 11,15.4 27.2,15.4 	
		"/>
</g>
<g>
	<polygon class="st0" points="10.5,20.1 12.9,27.7 20.9,27.7 14.5,32.4 16.9,40 10.5,35.3 4,40 6.5,32.4 0,27.7 8,27.7 	"/>
</g>
<g>
	<polygon class="st0" points="53.9,20.1 56.3,27.7 64.3,27.7 57.9,32.4 60.3,40 53.9,35.3 47.4,40 49.9,32.4 43.4,27.7 51.4,27.7 	
		"/>
</g>
</svg>
