<?xml version="1.0" encoding="utf-8"?>
<!-- Generator: Adobe Illustrator 21.1.0, SVG Export Plug-In . SVG Version: 6.00 Build 0)  -->
<svg version="1.1" id="chrono" xmlns="http://www.w3.org/2000/svg" xmlns:xlink="http://www.w3.org/1999/xlink" x="0px" y="0px"
	 viewBox="0 0 23 26.5" style="enable-background:new 0 0 23 26.5;" xml:space="preserve">
<style type="text/css">
	.st0{fill:#1D1D1D;}
	.st1{fill:#89B6DB;}
	.st2{opacity:0.2;fill:#1D1D1D;}
</style>
<g id="chrono_1_">
	<circle id="fond" class="st0" cx="11.5" cy="15" r="11.5"/>
	<path id="boucle" class="st0" d="M11.5,0C9,0,7,2,7,4.5s2,4.5,4.5,4.5s4.5-2,4.5-4.5S14.1,0,11.5,0z M11.5,7.2
		c-1.5,0-2.7-1.2-2.7-2.7s1.2-2.7,2.7-2.7s2.7,1.2,2.7,2.7S13,7.2,11.5,7.2z"/>
	<circle id="couleur" class="st1" cx="11.5" cy="15" r="9.3"/>
	<path id="ombre" class="st2" d="M20.8,15c0-5.1-4.1-9.3-9.3-9.3v18.5C16.7,24.3,20.8,20.2,20.8,15z"/>
	<circle id="centre_2_" class="st0" cx="11.5" cy="15" r="1.4"/>
	<path id="aiguille2_2_" class="st0" d="M17.9,15.8h-6.4c-0.4,0-0.8-0.3-0.8-0.8c0-0.4,0.3-0.8,0.8-0.8h6.4c0.4,0,0.8,0.3,0.8,0.8
		C18.7,15.5,18.3,15.8,17.9,15.8z"/>
	<path id="aiguille1_2_" class="st0" d="M11.5,15.8c-0.4,0-0.8-0.3-0.8-0.8V8.7c0-0.4,0.3-0.8,0.8-0.8c0.4,0,0.8,0.3,0.8,0.8V15
		C12.3,15.5,12,15.8,11.5,15.8z"/>
</g>
</svg>
