<?xml version="1.0" encoding="utf-8"?>
<!-- Generator: Adobe Illustrator 21.1.0, SVG Export Plug-In . SVG Version: 6.00 Build 0)  -->
<svg version="1.1" id="coeur" xmlns="http://www.w3.org/2000/svg" xmlns:xlink="http://www.w3.org/1999/xlink" x="0px" y="0px"
	 viewBox="0 0 44.4 38.4" style="enable-background:new 0 0 44.4 38.4;" xml:space="preserve">
<style type="text/css">
	.st0{fill:#1D1D1D;}
	.st1{fill:#CE2929;}
	.st2{opacity:0.15;fill:#FFFFFF;}
	.st3{opacity:0.2;fill:#1D1D1D;}
</style>
<g id="coeur_1_">
	<path id="fond" class="st0" d="M29.5,0.2c-2.7,0-5.2,0.9-7.2,2.6C19.5,0.5,16.5,0,14.7,0C7,0,0,7.7,0,16.3
		c0,12.3,18.4,20.9,20.6,21.8c0.5,0.2,1.1,0.3,1.6,0.3s1.1-0.1,1.6-0.3c2.1-0.9,20.6-9.6,20.6-21.8C44.4,7.9,37.3,0.2,29.5,0.2z"/>
	<path id="couleur" class="st1" d="M40.4,16.3c0,10-18.2,18.2-18.2,18.2S4,26.3,4,16.3S16.5-1.7,22.2,9.4
		C27.3-1.2,40.4,6.2,40.4,16.3z"/>
	
		<ellipse id="reflet" transform="matrix(0.7071 -0.7071 0.7071 0.7071 -5.2806 12.6881)" class="st2" cx="12.7" cy="12.7" rx="6.8" ry="4.1"/>
	<path id="ombre" class="st3" d="M22.2,9.4c0,2.1,0,25.1,0,25.1s18.2-8.1,18.2-18.2S27.3-1.2,22.2,9.4z"/>
</g>
</svg>
