<?xml version="1.0" encoding="utf-8"?>
<!-- Generator: Adobe Illustrator 21.1.0, SVG Export Plug-In . SVG Version: 6.00 Build 0)  -->
<svg version="1.1" id="bras2" xmlns="http://www.w3.org/2000/svg" xmlns:xlink="http://www.w3.org/1999/xlink" x="0px" y="0px"
	 viewBox="0 0 19.9 33.4" style="enable-background:new 0 0 19.9 33.4;" xml:space="preserve">
<style type="text/css">
	.st0{fill:#CCAB87;}
	.st1{opacity:5.000000e-02;enable-background:new    ;}
</style>
<path id="peau" class="st0" d="M17.7,31.5l-5.2,1.7c-1.7,0.6-3.5-0.4-4.1-2.1L0.2,6c-0.6-1.7,0.4-3.5,2.1-4.1l5.2-1.7
	c1.7-0.6,3.5,0.4,4.1,2.1l8.2,25.1C20.3,29.1,19.4,31,17.7,31.5z"/>
<path id="ombre" class="st1" d="M17.7,31.5l-5.2,1.7c-1.7,0.6-3.5-0.4-4.1-2.1L0.2,6c-0.6-1.7,0.4-3.5,2.1-4.1l5.2-1.7
	c1.7-0.6,3.5,0.4,4.1,2.1l8.2,25.1C20.3,29.1,19.4,31,17.7,31.5z"/>
</svg>
