<?xml version="1.0" encoding="utf-8"?>
<!-- Generator: Adobe Illustrator 21.1.0, SVG Export Plug-In . SVG Version: 6.00 Build 0)  -->
<svg version="1.1" id="bras1" xmlns="http://www.w3.org/2000/svg" xmlns:xlink="http://www.w3.org/1999/xlink" x="0px" y="0px"
	 viewBox="0 0 19.8 33.4" style="enable-background:new 0 0 19.8 33.4;" xml:space="preserve">
<style type="text/css">
	.st0{fill:#CCAB87;}
	.st1{opacity:0.2;enable-background:new    ;}
</style>
<path id="peau" class="st0" d="M7.5,33.2l-5.2-1.6c-1.7-0.5-2.7-2.4-2.1-4.1l8-25.2c0.5-1.7,2.4-2.7,4.1-2.1l5.2,1.6
	c1.7,0.5,2.7,2.4,2.1,4.1l-8,25.2C11,32.8,9.2,33.8,7.5,33.2z"/>
<path id="ombre" class="st1" d="M7.5,33.2l-5.2-1.6c-1.7-0.5-2.7-2.4-2.1-4.1l8-25.2c0.5-1.7,2.4-2.7,4.1-2.1l5.2,1.6
	c1.7,0.5,2.7,2.4,2.1,4.1l-8,25.2C11,32.8,9.2,33.8,7.5,33.2z"/>
</svg>
