<?xml version="1.0" encoding="utf-8"?>
<!-- Generator: Adobe Illustrator 21.1.0, SVG Export Plug-In . SVG Version: 6.00 Build 0)  -->
<svg version="1.1" id="corps" xmlns="http://www.w3.org/2000/svg" xmlns:xlink="http://www.w3.org/1999/xlink" x="0px" y="0px"
	 viewBox="0 0 32.8 32.9" style="enable-background:new 0 0 32.8 32.9;" xml:space="preserve">
<style type="text/css">
	.st0{fill:#BC4217;}
	.st1{fill:#CCAB87;}
	.st2{opacity:0.15;enable-background:new    ;}
</style>
<path id="vetement" class="st0" d="M29.6,32.9H3.2c-1.8,0-3.2-1.5-3.2-3.2V3.2C0,1.4,1.5,0,3.2,0h26.4c1.8,0,3.2,1.5,3.2,3.2v26.4
	C32.8,31.4,31.4,32.9,29.6,32.9z"/>
<path id="peau_2_" class="st1" d="M16.6,8.9c4.9,0,8.9-4,8.9-8.9H7.7C7.7,4.9,11.7,8.9,16.6,8.9z"/>
<path id="ombre_4_" class="st2" d="M16.6,8.9c4.9,0,8.9-4,8.9-8.9H7.7C7.7,4.9,11.7,8.9,16.6,8.9z"/>
</svg>
