<?xml version="1.0" encoding="utf-8"?>
<!-- Generator: Adobe Illustrator 21.1.0, SVG Export Plug-In . SVG Version: 6.00 Build 0)  -->
<svg version="1.1" id="Calque_1" xmlns="http://www.w3.org/2000/svg" xmlns:xlink="http://www.w3.org/1999/xlink" x="0px" y="0px"
	 viewBox="0 0 52.1 175.1" style="enable-background:new 0 0 52.1 175.1;" xml:space="preserve">
<style type="text/css">
	.st0{fill:#1D1D1D;}
</style>
<g>
	<path class="st0" d="M1,175.1c-0.6,0-1-0.5-1-1V1c0-0.6,0.5-1,1-1s1,0.5,1,1v173C2.1,174.6,1.6,175.1,1,175.1z"/>
	<path class="st0" d="M51,175.1c-0.6,0-1-0.5-1-1V1c0-0.6,0.5-1,1-1s1,0.5,1,1v173C52.1,174.6,51.6,175.1,51,175.1z"/>
	<rect x="2" y="157" class="st0" width="48" height="10"/>
	<rect x="2" y="133" class="st0" width="48" height="10"/>
	<rect x="2" y="109" class="st0" width="48" height="10"/>
	<rect x="2" y="85" class="st0" width="48" height="10"/>
	<rect x="2" y="61" class="st0" width="48" height="10"/>
	<rect x="2" y="37" class="st0" width="48" height="10"/>
	<rect x="2" y="13" class="st0" width="48" height="10"/>
</g>
</svg>
