<?xml version="1.0" encoding="utf-8"?>
<!-- Generator: Adobe Illustrator 21.1.0, SVG Export Plug-In . SVG Version: 6.00 Build 0)  -->
<svg version="1.1" id="jambe1" xmlns="http://www.w3.org/2000/svg" xmlns:xlink="http://www.w3.org/1999/xlink" x="0px" y="0px"
	 viewBox="0 0 11.9 32.9" style="enable-background:new 0 0 11.9 32.9;" xml:space="preserve">
<style type="text/css">
	.st0{fill:#CCAB87;}
	.st1{fill:#BC4217;}
	.st2{opacity:0.2;enable-background:new    ;}
</style>
<path id="peau" class="st0" d="M8.7,32.9H3.2c-1.8,0-3.2-1.5-3.2-3.2V3.2C0,1.4,1.5,0,3.2,0h5.5c1.8,0,3.2,1.5,3.2,3.2v26.4
	C11.9,31.4,10.4,32.9,8.7,32.9z"/>
<path id="vetement" class="st1" d="M0,29.6V3.2C0,1.4,1.5,0,3.2,0h5.5c1.8,0,3.2,1.5,3.2,3.2v26.4H0z"/>
<path id="ombre" class="st2" d="M8.7,32.9H3.2c-1.8,0-3.2-1.5-3.2-3.2V3.2C0,1.4,1.5,0,3.2,0h5.5c1.8,0,3.2,1.5,3.2,3.2v26.4
	C11.9,31.4,10.4,32.9,8.7,32.9z"/>
</svg>
