<?xml version="1.0" encoding="utf-8"?>
<!-- Generator: Adobe Illustrator 21.1.0, SVG Export Plug-In . SVG Version: 6.00 Build 0)  -->
<svg version="1.1" id="perso" xmlns="http://www.w3.org/2000/svg" xmlns:xlink="http://www.w3.org/1999/xlink" x="0px" y="0px"
	 viewBox="0 0 53 70" style="enable-background:new 0 0 53 70;" xml:space="preserve">
<style type="text/css">
	.st0{fill:#CCAB87;}
	.st1{fill:#BC4217;}
	.st2{opacity:5.000000e-02;enable-background:new    ;}
	.st3{opacity:0.2;enable-background:new    ;}
	.st4{opacity:5.000000e-02;}
	.st5{opacity:0.15;enable-background:new    ;}
	.st6{opacity:0.3;enable-background:new    ;}
</style>
<g id="prisonnier_1_">
	<g id="jambe2">
		<path id="peau_5_" class="st0" d="M36.3,70h-5.5c-1.8,0-3.2-1.5-3.2-3.2V40.3c0-1.8,1.5-3.2,3.2-3.2h5.5c1.8,0,3.2,1.5,3.2,3.2
			v26.4C39.5,68.5,38.1,70,36.3,70z"/>
		<path id="vetement_2_" class="st1" d="M27.6,66.7V40.3c0-1.8,1.5-3.2,3.2-3.2h5.5c1.8,0,3.2,1.5,3.2,3.2v26.4H27.6z"/>
		<path id="ombre" class="st2" d="M36.3,70h-5.5c-1.8,0-3.2-1.5-3.2-3.2V40.3c0-1.8,1.5-3.2,3.2-3.2h5.5c1.8,0,3.2,1.5,3.2,3.2v26.4
			C39.5,68.5,38.1,70,36.3,70z"/>
	</g>
	<g id="jambe1">
		<path id="peau_6_" class="st0" d="M21.9,70h-5.5c-1.8,0-3.2-1.5-3.2-3.2V40.3c0-1.8,1.5-3.2,3.2-3.2h5.5c1.8,0,3.2,1.5,3.2,3.2
			v26.4C25.1,68.5,23.6,70,21.9,70z"/>
		<path id="vetement_1_" class="st1" d="M13.2,66.7V40.3c0-1.8,1.5-3.2,3.2-3.2h5.5c1.8,0,3.2,1.5,3.2,3.2v26.4H13.2z"/>
		<path id="ombre_1_" class="st3" d="M21.9,70h-5.5c-1.8,0-3.2-1.5-3.2-3.2V40.3c0-1.8,1.5-3.2,3.2-3.2h5.5c1.8,0,3.2,1.5,3.2,3.2
			v26.4C25.1,68.5,23.6,70,21.9,70z"/>
	</g>
	<g id="bras2">
		<g id="peau_4_">
			<path class="st0" d="M50.7,52.7l-5.2,1.7C43.8,55,42,54,41.4,52.3l-8.2-25.1c-0.6-1.7,0.4-3.5,2.1-4.1l5.2-1.7
				c1.7-0.6,3.5,0.4,4.1,2.1l8.2,25.1C53.3,50.3,52.4,52.2,50.7,52.7z"/>
		</g>
		<g id="ombre_2_" class="st4">
			<path d="M50.7,52.7l-5.2,1.7C43.8,55,42,54,41.4,52.3l-8.2-25.1c-0.6-1.7,0.4-3.5,2.1-4.1l5.2-1.7c1.7-0.6,3.5,0.4,4.1,2.1
				l8.2,25.1C53.3,50.3,52.4,52.2,50.7,52.7z"/>
		</g>
	</g>
	<g id="bras1">
		<path id="peau_3_" class="st0" d="M7.5,54.4l-5.2-1.6c-1.7-0.5-2.7-2.4-2.1-4.1l8-25.2c0.5-1.7,2.4-2.7,4.1-2.1l5.2,1.6
			c1.7,0.5,2.7,2.4,2.1,4.1l-8,25.2C11,54,9.2,55,7.5,54.4z"/>
		<path id="ombre_3_" class="st3" d="M7.5,54.4l-5.2-1.6c-1.7-0.5-2.7-2.4-2.1-4.1l8-25.2c0.5-1.7,2.4-2.7,4.1-2.1l5.2,1.6
			c1.7,0.5,2.7,2.4,2.1,4.1l-8,25.2C11,54,9.2,55,7.5,54.4z"/>
	</g>
	<g id="corps">
		<path id="vetement" class="st1" d="M39.5,51.8H13.1c-1.8,0-3.2-1.5-3.2-3.2V22.1c0-1.8,1.5-3.2,3.2-3.2h26.4
			c1.8,0,3.2,1.5,3.2,3.2v26.4C42.7,50.3,41.3,51.8,39.5,51.8z"/>
		<path id="peau_2_" class="st0" d="M26.5,27.8c4.9,0,8.9-4,8.9-8.9H17.6C17.6,23.8,21.6,27.8,26.5,27.8z"/>
		<path id="ombre_4_" class="st5" d="M26.5,27.8c4.9,0,8.9-4,8.9-8.9H17.6C17.6,23.8,21.6,27.8,26.5,27.8z"/>
	</g>
	<g id="tete">
		<path id="peau" class="st0" d="M34.1,22.1H18.5c-1.8,0-3.2-1.5-3.2-3.2V3.2c0-1.8,1.5-3.2,3.2-3.2h15.7c1.8,0,3.2,1.5,3.2,3.2
			v15.7C37.4,20.7,35.9,22.1,34.1,22.1z"/>
		<path id="ombre_5_" class="st3" d="M18.7,6.7c0-1.8,1.5-3.2,3.2-3.2h15.4V3.2c0-1.8-1.5-3.2-3.2-3.2H18.5c-1.8,0-3.2,1.5-3.2,3.2
			v15.7c0,1.8,1.5,3.2,3.2,3.2h0.2V6.7z"/>
		<path id="sourcil" d="M38.4,8.3l-4,0.8c-0.7,0.1-1.4-0.3-1.6-1l0,0c-0.1-0.7,0.3-1.4,1-1.6l4-0.8c0.7-0.1,1.4,0.3,1.6,1l0,0
			C39.5,7.5,39.1,8.2,38.4,8.3z"/>
		<circle id="oeil_1_" cx="35.1" cy="10.7" r="1"/>
		<circle id="oeil" cx="25.4" cy="10.7" r="1"/>
		<path id="sourcil_1_" d="M22.9,8.3l4,0.8c0.7,0.1,1.4-0.3,1.6-1l0,0c0.1-0.7-0.3-1.4-1-1.6l-4-0.8c-0.7-0.1-1.4,0.3-1.6,1l0,0
			C21.7,7.5,22.1,8.2,22.9,8.3z"/>
		<path id="nez" class="st6" d="M30.8,16.5L30.8,16.5c-0.8,0-1.5-0.7-1.5-1.5V8.9c0-0.8,0.7-1.5,1.5-1.5l0,0c0.8,0,1.5,0.7,1.5,1.5
			V15C32.3,15.8,31.6,16.5,30.8,16.5z"/>
		<path id="peau_1_" class="st0" d="M15.2,15.7L15.2,15.7c-1.8,0-3.2-1.5-3.2-3.2l0,0c0-1.8,1.5-3.2,3.2-3.2l0,0
			c1.8,0,3.2,1.5,3.2,3.2l0,0C18.5,14.2,17,15.7,15.2,15.7z"/>
		<path id="ombre_6_" class="st3" d="M15.2,15.7L15.2,15.7c-1.8,0-3.2-1.5-3.2-3.2l0,0c0-1.8,1.5-3.2,3.2-3.2l0,0
			c1.8,0,3.2,1.5,3.2,3.2l0,0C18.5,14.2,17,15.7,15.2,15.7z"/>
	</g>
</g>
</svg>
