<?xml version="1.0" encoding="utf-8"?>
<!-- Generator: Adobe Illustrator 21.1.0, SVG Export Plug-In . SVG Version: 6.00 Build 0)  -->
<svg version="1.1" id="tete-verso" xmlns="http://www.w3.org/2000/svg" xmlns:xlink="http://www.w3.org/1999/xlink" x="0px" y="0px"
	 viewBox="0 0 26.6 22.1" style="enable-background:new 0 0 26.6 22.1;" xml:space="preserve">
<style type="text/css">
	.st0{fill:#CCAB87;}
	.st1{opacity:0.2;enable-background:new    ;}
</style>
<g id="tete">
	<path id="peau" class="st0" d="M21.1,22.1H5.5c-1.8,0-3.2-1.5-3.2-3.2V3.2C2.3,1.4,3.8,0,5.5,0h15.7c1.8,0,3.2,1.5,3.2,3.2v15.7
		C24.4,20.7,22.9,22.1,21.1,22.1z"/>
	<path id="ombre_4_" class="st1" d="M21.1,22.1H5.5c-1.8,0-3.2-1.5-3.2-3.2V3.2C2.3,1.4,3.8,0,5.5,0h15.7c1.8,0,3.2,1.5,3.2,3.2
		v15.7C24.4,20.7,22.9,22.1,21.1,22.1z"/>
	<path id="peau_1_" class="st0" d="M3.2,15.7L3.2,15.7c-1.8,0-3.2-1.5-3.2-3.2l0,0c0-1.8,1.5-3.2,3.2-3.2l0,0c1.8,0,3.2,1.5,3.2,3.2
		l0,0C6.5,14.2,5,15.7,3.2,15.7z"/>
	<path id="ombre_6_" class="st1" d="M3.2,15.7L3.2,15.7c-1.8,0-3.2-1.5-3.2-3.2l0,0c0-1.8,1.5-3.2,3.2-3.2l0,0
		c1.8,0,3.2,1.5,3.2,3.2l0,0C6.5,14.2,5,15.7,3.2,15.7z"/>
	<path id="peau_7_" class="st0" d="M23.4,15.7L23.4,15.7c-1.8,0-3.2-1.5-3.2-3.2l0,0c0-1.8,1.5-3.2,3.2-3.2l0,0
		c1.8,0,3.2,1.5,3.2,3.2l0,0C26.7,14.2,25.2,15.7,23.4,15.7z"/>
	<path id="ombre_2_" class="st1" d="M23.4,15.7L23.4,15.7c-1.8,0-3.2-1.5-3.2-3.2l0,0c0-1.8,1.5-3.2,3.2-3.2l0,0
		c1.8,0,3.2,1.5,3.2,3.2l0,0C26.7,14.2,25.2,15.7,23.4,15.7z"/>
</g>
</svg>
