<?xml version="1.0" encoding="utf-8"?>
<!-- Generator: Adobe Illustrator 21.1.0, SVG Export Plug-In . SVG Version: 6.00 Build 0)  -->
<svg version="1.1" id="Calque_1" xmlns="http://www.w3.org/2000/svg" xmlns:xlink="http://www.w3.org/1999/xlink" x="0px" y="0px"
	 viewBox="0 0 27.4 22.1" style="enable-background:new 0 0 27.4 22.1;" xml:space="preserve">
<style type="text/css">
	.st0{fill:#CCAB87;}
	.st1{opacity:0.2;enable-background:new    ;}
	.st2{opacity:0.3;enable-background:new    ;}
</style>
<g id="tete">
	<path id="peau" class="st0" d="M22.1,22.1l-15.6,0c-1.8,0-3.2-1.5-3.2-3.2l0-15.7C3.3,1.4,4.8,0,6.5,0l15.7,0
		c1.8,0,3.2,1.5,3.2,3.2l0,15.7C25.4,20.7,23.9,22.1,22.1,22.1z"/>
	<path id="ombre_5_" class="st1" d="M6.7,6.7c0-1.8,1.5-3.2,3.2-3.2l15.4,0V3.2c0-1.8-1.5-3.2-3.2-3.2L6.5,0C4.7,0,3.3,1.5,3.3,3.2
		l0,15.7c0,1.8,1.5,3.2,3.2,3.2h0.2L6.7,6.7z"/>
	<path id="sourcil" d="M26.4,8.3l-4,0.8c-0.7,0.1-1.4-0.3-1.6-1l0,0c-0.1-0.7,0.3-1.4,1-1.6l4-0.8c0.7-0.1,1.4,0.3,1.6,1l0,0
		C27.5,7.5,27.1,8.2,26.4,8.3z"/>
	<circle id="oeil_1_" cx="23.1" cy="10.7" r="1"/>
	<circle id="oeil" cx="13.4" cy="10.7" r="1"/>
	<path id="sourcil_1_" d="M10.9,8.3l4,0.8c0.7,0.1,1.4-0.3,1.6-1l0,0c0.1-0.7-0.3-1.4-1-1.6l-4-0.8c-0.7-0.1-1.4,0.3-1.6,1l0,0
		C9.7,7.5,10.1,8.2,10.9,8.3z"/>
	<path id="nez" class="st2" d="M18.8,16.5L18.8,16.5c-0.8,0-1.5-0.7-1.5-1.5l0-6.1c0-0.8,0.7-1.5,1.5-1.5l0,0c0.8,0,1.5,0.7,1.5,1.5
		l0,6.1C20.3,15.8,19.6,16.5,18.8,16.5z"/>
	<path id="peau_1_" class="st0" d="M3.2,15.7L3.2,15.7c-1.8,0-3.2-1.5-3.2-3.2l0,0c0-1.8,1.5-3.2,3.2-3.2l0,0c1.8,0,3.2,1.5,3.2,3.2
		l0,0C6.5,14.2,5,15.7,3.2,15.7z"/>
	<path id="ombre_6_" class="st1" d="M3.2,15.7L3.2,15.7c-1.8,0-3.2-1.5-3.2-3.2l0,0c0-1.8,1.5-3.2,3.2-3.2l0,0
		c1.8,0,3.2,1.5,3.2,3.2l0,0C6.5,14.2,5,15.7,3.2,15.7z"/>
</g>
</svg>
