<?xml version="1.0" encoding="utf-8"?>
<!-- Generator: Adobe Illustrator 21.1.0, SVG Export Plug-In . SVG Version: 6.00 Build 0)  -->
<svg version="1.1" id="tete-all" xmlns="http://www.w3.org/2000/svg" xmlns:xlink="http://www.w3.org/1999/xlink" x="0px" y="0px"
	 viewBox="0 0 30.3 25.4" style="enable-background:new 0 0 30.3 25.4;" xml:space="preserve">
<style type="text/css">
	.st0{fill:#CCAB87;}
	.st1{opacity:0.2;enable-background:new    ;}
	.st2{opacity:0.3;enable-background:new    ;}
	.st3{fill:#00B862;}
</style>
<g id="tete">
	<path id="peau" class="st0" d="M22.1,25.4H6.5c-1.8,0-3.2-1.5-3.2-3.2V6.4c0-1.8,1.5-3.2,3.2-3.2h15.7c1.8,0,3.2,1.5,3.2,3.2v15.7
		C25.4,24,23.9,25.4,22.1,25.4z"/>
	<path id="ombre_5_" class="st1" d="M6.7,9.9c0-1.8,1.5-3.2,3.2-3.2h15.4V6.4c0-1.8-1.5-3.2-3.2-3.2H6.5c-1.8,0-3.2,1.5-3.2,3.2
		v15.7c0,1.8,1.5,3.2,3.2,3.2h0.2V9.9z"/>
	<path id="sourcil" d="M26.4,11.6l-4,0.8c-0.7,0.1-1.4-0.3-1.6-1l0,0c-0.1-0.7,0.3-1.4,1-1.6l4-0.8c0.7-0.1,1.4,0.3,1.6,1l0,0
		C27.5,10.8,27.1,11.4,26.4,11.6z"/>
	<circle id="oeil_1_" cx="23.1" cy="13.9" r="1"/>
	<circle id="oeil" cx="13.4" cy="13.9" r="1"/>
	<path id="sourcil_1_" d="M10.9,11.6l4,0.8c0.7,0.1,1.4-0.3,1.6-1l0,0c0.1-0.7-0.3-1.4-1-1.6l-4-0.8c-0.7-0.1-1.4,0.3-1.6,1l0,0
		C9.7,10.8,10.1,11.4,10.9,11.6z"/>
	<path id="nez" class="st2" d="M18.8,19.8L18.8,19.8c-0.8,0-1.5-0.7-1.5-1.5v-6.1c0-0.8,0.7-1.5,1.5-1.5l0,0c0.8,0,1.5,0.7,1.5,1.5
		v6.1C20.3,19,19.6,19.8,18.8,19.8z"/>
	<path id="peau_1_" class="st0" d="M3.2,19L3.2,19C1.4,19,0,17.5,0,15.8l0,0c0-1.8,1.5-3.2,3.2-3.2l0,0c1.8,0,3.2,1.5,3.2,3.2l0,0
		C6.5,17.5,5,19,3.2,19z"/>
	<path id="ombre_6_" class="st1" d="M3.2,19L3.2,19C1.4,19,0,17.5,0,15.8l0,0c0-1.8,1.5-3.2,3.2-3.2l0,0c1.8,0,3.2,1.5,3.2,3.2l0,0
		C6.5,17.5,5,19,3.2,19z"/>
</g>
<g id="casquette">
	<path id="couleur" class="st3" d="M25.4,7.5V3.2C25.4,1.5,24,0,22.2,0H6.5C4.8,0,3.3,1.4,3.3,3.2v4.3v0.1v1.6h27V7.5H25.4z"/>
	<path id="ombre_1_" class="st1" d="M6.7,5.4c0-1.8,1.5-3.2,3.2-3.2h15.3C24.8,1,23.6,0,22.2,0H6.5C4.8,0,3.3,1.4,3.3,3.2v4.3v0.1
		v1.6h3.4V5.4z"/>
	<rect id="ombre" x="15.7" y="5.8" class="st1" width="9.7" height="1.7"/>
</g>
</svg>
